<?xml version="1.0" standalone="no"?><!DOCTYPE svg PUBLIC "-//W3C//DTD SVG 1.1//EN" "http://www.w3.org/Graphics/SVG/1.1/DTD/svg11.dtd"><svg t="1562588212645" class="icon" viewBox="0 0 1088 1024" version="1.1" xmlns="http://www.w3.org/2000/svg" p-id="1058" width="17" height="16" xmlns:xlink="http://www.w3.org/1999/xlink"><defs><style type="text/css"></style></defs><path d="M1074.944 570.112 974.976 461.44C961.216 447.872 939.008 447.872 925.312 461.44L825.216 570.112C811.456 583.808 811.456 605.888 825.216 619.52L908.032 619.52C876.928 736.32 785.28 830.464 665.536 862.08 526.784 898.688 378.432 844.224 296.448 726.464L226.624 774.528C307.648 890.944 440.576 957.824 578.496 957.824 614.656 957.824 651.264 953.216 687.168 943.68 844.032 902.336 962.56 775.168 995.2 619.52L1074.88 619.52C1088.64 605.888 1088.64 583.808 1074.944 570.112L1074.944 570.112Z" p-id="1059"></path><path d="M350.4 513.344C364.16 499.712 364.16 477.568 350.4 463.936L257.152 463.936C289.024 348.672 379.904 256.064 498.496 224.704 637.376 188.032 785.6 242.624 867.52 360.448L937.408 312.32C835.136 165.44 650.304 97.344 476.672 143.04 321.024 184.192 203.2 309.76 169.472 463.936L76.544 463.936C62.784 477.632 62.784 499.776 76.544 513.344L181.376 618.112C195.072 631.68 217.344 631.68 231.04 618.112L350.4 513.344 350.4 513.344Z" p-id="1060"></path></svg>